<svg xmlns="http://www.w3.org/2000/svg"  viewBox="0 0 24 24" width="24px" height="24px" baseProfile="basic"><linearGradient id="jp1Rz58IAw0oPRudazCgna" x1="12" x2="12" y1="2.993" y2="20.993" gradientUnits="userSpaceOnUse"><stop offset="0" stop-color="#4df0ff"/><stop offset="1" stop-color="#00b5ff"/></linearGradient><path fill="url(#jp1Rz58IAw0oPRudazCgna)" d="M14,3.993c0,0.552-0.448,1-1,1H9c-1.103,0-2,0.897-2,2l0,7.308c0,0.39,0.31,0.7,0.7,0.7h1.6	c0.59,0,0.97,0.71,0.45,1.23l-2.9,3.36c-0.45,0.56-1.28,0.53-1.71,0l-2.91-3.38c-0.48-0.48-0.12-1.21,0.47-1.21h1.6	c0.39,0,0.7-0.31,0.7-0.7l0-7.308c0-2.206,1.794-4,4-4h4C13.552,2.993,14,3.44,14,3.993z M17.15,4.409l-2.9,3.36	c-0.52,0.52-0.14,1.23,0.45,1.23h1.6c0.39,0,0.7,0.31,0.7,0.7l0,7.294c0,1.103-0.897,2-2,2h-4c-0.552,0-1,0.448-1,1s0.448,1,1,1h4	c2.206,0,4-1.794,4-4l0-7.294c0-0.39,0.31-0.7,0.7-0.7h1.6c0.59,0,0.95-0.73,0.47-1.21l-2.91-3.38	C18.43,3.879,17.6,3.849,17.15,4.409z"/></svg>